<?xml version="1.0" encoding="utf-8"?>
<!-- Generator: Adobe Illustrator 16.0.0, SVG Export Plug-In . SVG Version: 6.00 Build 0)  -->
<!DOCTYPE svg PUBLIC "-//W3C//DTD SVG 1.1//EN" "http://www.w3.org/Graphics/SVG/1.1/DTD/svg11.dtd">
<svg version="1.1" id="Layer_1" xmlns="http://www.w3.org/2000/svg" xmlns:xlink="http://www.w3.org/1999/xlink" x="0px" y="0px"
	 width="108.097px" height="36px" viewBox="0 0 108.097 36" enable-background="new 0 0 108.097 36" xml:space="preserve">
<g>
	<g>
		<path fill="#FFFFFF" d="M7.094,16.121H4.18v6.383H2.515V7.597h4.619c3.984,0,5.095,2.121,5.095,4.064
			c0,2.676-1.744,3.905-3.39,4.301l3.965,6.542h-2.042L7.094,16.121z M7.154,14.615c1.962,0,3.29-0.932,3.29-2.715
			c0-2.202-1.665-2.796-3.389-2.796H4.18v5.511H7.154z"/>
		<path fill="#FFFFFF" d="M23.018,19.63c-0.875,1.936-2.344,3.161-4.69,3.161c-2.854,0-4.791-2.162-4.791-4.996
			c0-3.427,1.875-5.772,4.873-5.772c2.896,0,4.874,1.836,4.874,5.301v0.449H15.25c0,2.366,1.447,3.589,3.16,3.589
			c1.835,0,2.631-1.143,2.978-1.979L23.018,19.63z M21.571,16.469c-0.225-1.855-1.285-3.018-3.119-3.018
			c-2.081,0-3.04,1.632-3.161,3.018H21.571z"/>
		<path fill="#FFFFFF" d="M23.748,12.31h1.754l2.529,7.788h0.04l2.528-7.788h1.509l2.589,7.788h0.041l2.529-7.788h1.693
			l-3.508,10.194h-1.57l-2.508-7.789h-0.04l-2.488,7.789h-1.549L23.748,12.31z"/>
		<path fill="#FFFFFF" d="M46.8,21.158h-0.041c-0.713,1.266-2.243,1.633-3.425,1.633c-2.427,0-3.69-1.428-3.69-3.036
			c0-1.88,1.019-2.979,3.812-3.123c1.122-0.061,2.224-0.122,3.345-0.164v-0.775c0-1.305-0.551-2.365-2.589-2.365
			c-1.877,0-2.488,0.795-2.692,1.938h-1.569c0.326-2.284,1.875-3.243,4.281-3.243c2.733,0,4.16,1.245,4.16,3.426v5.058
			c0,0.631,0.082,1.428,0.143,1.997H46.8V21.158z M46.8,17.671l-2.691,0.124c-1.734,0.08-2.753,0.55-2.753,1.875
			c0,1.021,0.877,1.815,2.325,1.815c1.385,0,3.12-0.774,3.12-2.547V17.671z"/>
		<path fill="#FFFFFF" d="M51.044,12.31h1.55v2.243h0.041c0.408-1.081,1.223-2.406,2.936-2.406h0.57v1.672h-0.51
			c-2.079,0-2.997,1.428-2.997,3.834v4.852h-1.591V12.31z"/>
		<path fill="#FFFFFF" d="M65.223,20.73h-0.041c-0.47,0.797-1.306,2.061-3.406,2.061c-2.814,0-4.914-2.202-4.914-5.384
			c0-3.751,2.589-5.261,4.709-5.261c2.265,0,3.182,1.284,3.61,1.937h0.041V7.17h1.589v15.333h-1.589V20.73z M61.879,13.574
			c-1.753,0-3.303,1.182-3.303,3.874c0,2.119,1.101,3.915,3.243,3.915c2.14,0,3.404-1.733,3.404-3.875
			C65.223,14.817,63.571,13.574,61.879,13.574z"/>
		<path fill="#FFFFFF" d="M70.237,7.17c0.672,0,1.202,0.53,1.202,1.203c0,0.673-0.53,1.204-1.202,1.204
			c-0.674,0-1.204-0.53-1.204-1.204C69.033,7.701,69.563,7.17,70.237,7.17z M69.44,12.31h1.593v10.194H69.44V12.31z"/>
		<path fill="#FFFFFF" d="M80.325,16.347c0-2.12-1.101-2.772-2.242-2.772c-1.489,0-2.854,1.141-2.854,3.262v5.667h-1.591V12.31
			h1.591v1.733h0.041c0.693-1.305,1.794-1.896,3.241-1.896c1.224,0,3.404,0.632,3.404,3.506v6.851h-1.59V16.347z"/>
		<path fill="#FFFFFF" d="M92.355,12.31h1.59v9.218c0,3.181-1.469,5.26-5.282,5.26c-2.486,0-4.158-1.224-4.321-3.346l1.713-0.081
			c0.142,0.817,0.591,1.999,2.649,1.999c2.936,0,3.651-1.918,3.651-4.264v-0.834h-0.041c-0.755,1.673-2.263,2.242-3.63,2.242
			c-2.999,0-4.69-2.283-4.69-5.219c0-3.161,2.202-5.261,4.875-5.261c1.365,0,2.648,0.735,3.445,2.019h0.041V12.31z M89.01,13.451
			c-1.854,0-3.301,1.224-3.301,3.69c0,2.304,0.957,3.937,3.24,3.937c1.61,0,3.406-1.226,3.406-3.957
			C92.355,15.266,91.275,13.451,89.01,13.451z"/>
	</g>
	<g>
		<path fill="#FFFFFF" d="M51.01,26.054h2.439c1.572,0,2.511,0.889,2.511,2.368c0,1.52-1.102,2.348-2.634,2.348h-1.459v2.959H51.01
			V26.054z M53.194,29.992c0.98,0,1.847-0.417,1.847-1.581c0-1.113-0.734-1.582-1.775-1.582h-1.398v3.163H53.194z"/>
		<path fill="#FFFFFF" d="M62.012,32.967H61.99c-0.405,0.718-1.271,0.925-1.943,0.925c-1.377,0-2.094-0.811-2.094-1.724
			c0-1.066,0.578-1.691,2.164-1.771c0.636-0.034,1.261-0.069,1.896-0.092v-0.439c0-0.741-0.311-1.342-1.468-1.342
			c-1.064,0-1.411,0.451-1.526,1.1h-0.892c0.186-1.296,1.064-1.841,2.429-1.841c1.55,0,2.36,0.707,2.36,1.943v2.87
			c0,0.357,0.045,0.81,0.081,1.133h-0.984V32.967z M62.012,30.988l-1.526,0.069c-0.982,0.044-1.561,0.311-1.561,1.063
			c0,0.578,0.497,1.03,1.318,1.03c0.787,0,1.769-0.44,1.769-1.446V30.988z"/>
		<path fill="#FFFFFF" d="M69.647,30.236c0-1.205-0.624-1.575-1.272-1.575c-0.844,0-1.619,0.648-1.619,1.852v3.216h-0.903v-5.785
			h0.903v0.983h0.024c0.393-0.74,1.017-1.074,1.839-1.074c0.692,0,1.931,0.36,1.931,1.989v3.887h-0.902V30.236z"/>
		<path fill="#FFFFFF" d="M78.508,32.098c-0.499,1.099-1.331,1.794-2.661,1.794c-1.62,0-2.72-1.229-2.72-2.834
			c0-1.944,1.065-3.275,2.765-3.275c1.644,0,2.766,1.042,2.766,3.009v0.254h-4.559c0,1.341,0.822,2.036,1.793,2.036
			c1.042,0,1.492-0.647,1.69-1.122L78.508,32.098z M77.686,30.305c-0.129-1.052-0.729-1.713-1.771-1.713
			c-1.182,0-1.724,0.925-1.793,1.713H77.686z"/>
		<path fill="#FFFFFF" d="M80.995,25.031h0.9v8.697h-0.9V25.031z"/>
	</g>
	<g>
		<g id="x7Em2r.tif">
			<g>
				<g>
					<g>
						<path fill="#FFFFFF" d="M87.307,7.151c0.104-0.139,0.21-0.278,0.313-0.417c0.21-0.142,0.407-0.304,0.629-0.419
							c0.762-0.398,1.589-0.61,2.43-0.741c2.045-0.318,4.108-0.449,6.179-0.358c1.179,0.051,2.345,0.208,3.46,0.631
							c0.641,0.245,1.178,0.62,1.612,1.156c0.567,0.707,1.024,1.486,1.407,2.308c0.825,1.769,1.396,3.622,1.771,5.534
							c0.212,1.084,0.43,2.17,0.468,3.277c0.028,0.838-0.042,1.661-0.413,2.435c-0.251,0.518-0.534,0.656-1.076,0.539
							c-0.14-0.105-0.277-0.212-0.416-0.315c-0.001-0.013,0.002-0.028-0.004-0.038c-0.426-0.503-0.656-1.104-0.854-1.72
							c-0.452-1.418-0.88-2.843-1.354-4.254c-0.402-1.198-0.854-2.38-1.495-3.479c-0.234-0.403-0.481-0.817-0.907-1.036
							c-0.365-0.188-0.765-0.316-1.157-0.439c-1.154-0.356-2.342-0.476-3.541-0.523c-1.271-0.051-2.543-0.075-3.811-0.157
							c-0.853-0.055-1.699-0.205-2.48-0.59c-0.325-0.161-0.603-0.383-0.779-0.718C87.16,7.59,87.246,7.373,87.307,7.151z"/>
					</g>
				</g>
			</g>
		</g>
		<g id="x7Em2r.tif_2_" opacity="0.4">
			<g>
				<g>
					<g>
						<path fill="#FFFFFF" d="M83.903,3.472c0.083-0.111,0.167-0.222,0.253-0.333c0.166-0.113,0.326-0.245,0.505-0.338
							c0.61-0.32,1.273-0.49,1.949-0.596c1.644-0.255,3.299-0.359,4.963-0.286c0.946,0.041,1.881,0.167,2.778,0.507
							c0.513,0.197,0.945,0.498,1.292,0.928c0.458,0.569,0.822,1.194,1.133,1.853c0.661,1.42,1.12,2.908,1.421,4.443
							c0.169,0.87,0.345,1.743,0.376,2.633c0.022,0.67-0.034,1.333-0.332,1.952c-0.202,0.417-0.43,0.53-0.864,0.434
							c-0.111-0.085-0.225-0.169-0.334-0.253c-0.001-0.01,0.001-0.023-0.003-0.029c-0.343-0.404-0.528-0.887-0.687-1.381
							c-0.359-1.139-0.706-2.283-1.087-3.417c-0.324-0.962-0.687-1.912-1.201-2.794c-0.188-0.323-0.385-0.656-0.727-0.832
							c-0.294-0.151-0.615-0.254-0.934-0.352c-0.924-0.287-1.877-0.381-2.841-0.419c-1.021-0.042-2.04-0.061-3.059-0.127
							c-0.688-0.044-1.366-0.164-1.993-0.473c-0.261-0.131-0.483-0.31-0.625-0.578C83.784,3.827,83.853,3.652,83.903,3.472z"/>
					</g>
				</g>
			</g>
		</g>
	</g>
</g>
</svg>
